<svg width="17" height="16" viewBox="0 0 17 16" fill="none" xmlns="http://www.w3.org/2000/svg">
<path d="M8.49997 14.6663C6.69997 14.6663 5.0333 13.9997 3.76663 12.733C3.49997 12.4663 3.49997 12.0663 3.76663 11.7997C4.0333 11.533 4.4333 11.533 4.69997 11.7997C5.76664 12.7997 7.09997 13.333 8.49997 13.333C11.4333 13.333 13.8333 10.933 13.8333 7.99967C13.8333 5.06634 11.4333 2.66634 8.49997 2.66634C7.09997 2.66634 5.76664 3.19967 4.69997 4.19967C4.16664 4.73301 3.0333 6.06634 2.96663 6.13301C2.69997 6.39967 2.29997 6.46634 2.0333 6.19967C1.76663 5.93301 1.69997 5.53301 1.96663 5.26634C2.0333 5.19967 3.16664 3.86634 3.76663 3.33301C5.0333 1.99967 6.69997 1.33301 8.49997 1.33301C12.1666 1.33301 15.1666 4.33301 15.1666 7.99967C15.1666 11.6663 12.1666 14.6663 8.49997 14.6663Z" fill="#7D8DA7"/>
<path d="M5.16683 6.33301H2.50016C2.10016 6.33301 1.8335 6.06634 1.8335 5.66634V2.99967C1.8335 2.59967 2.10016 2.33301 2.50016 2.33301C2.90016 2.33301 3.16683 2.59967 3.16683 2.99967V4.99967H5.16683C5.56683 4.99967 5.8335 5.26634 5.8335 5.66634C5.8335 6.06634 5.56683 6.33301 5.16683 6.33301Z" fill="#7D8DA7"/>
</svg>
