<svg width="17" height="16" viewBox="0 0 17 16" fill="none" xmlns="http://www.w3.org/2000/svg">
<g clip-path="url(#clip0_3681_3108)">
<path d="M11.125 7.46842C11.2656 7.32778 11.4564 7.24876 11.6553 7.24876C11.8542 7.24876 12.0449 7.32778 12.1856 7.46842L13.0084 8.29279C13.0616 7.47221 12.8893 6.65272 12.5103 5.92298C12.1313 5.19323 11.5599 4.58103 10.858 4.1526C10.1562 3.72417 9.3505 3.49583 8.52821 3.49229C7.70592 3.48874 6.89831 3.71012 6.19277 4.13248C6.09527 4.19092 5.99871 4.25373 5.9059 4.31998C5.82536 4.37692 5.7344 4.41744 5.6382 4.43923C5.542 4.46101 5.44246 4.46364 5.34524 4.44695C5.24803 4.43027 5.15506 4.3946 5.07163 4.34198C4.98821 4.28936 4.91596 4.22083 4.85902 4.14029C4.80208 4.05975 4.76156 3.96879 4.73978 3.87259C4.71799 3.7764 4.71536 3.67685 4.73205 3.57964C4.74874 3.48243 4.7844 3.38946 4.83702 3.30603C4.88964 3.2226 4.95817 3.15036 5.03871 3.09342C5.16371 3.00592 5.2909 2.92248 5.42027 2.84342C6.34381 2.29059 7.39888 1.99596 8.47522 1.99032C9.55155 1.98467 10.6097 2.26822 11.5389 2.81132C12.4682 3.35443 13.2346 4.13716 13.7579 5.07771C14.2813 6.01827 14.5424 7.08213 14.514 8.1581L15.205 7.46842C15.2747 7.39884 15.3575 7.34368 15.4486 7.30609C15.5397 7.26851 15.6373 7.24923 15.7358 7.24936C15.8343 7.24949 15.9319 7.26903 16.0229 7.30685C16.1138 7.34468 16.1965 7.40006 16.2661 7.46982C16.3356 7.53959 16.3908 7.62238 16.4284 7.71346C16.466 7.80454 16.4852 7.90213 16.4851 8.00066C16.485 8.09919 16.4654 8.19673 16.4276 8.28772C16.3898 8.3787 16.3344 8.46134 16.2646 8.53092L14.2225 10.5715C14.0818 10.7122 13.891 10.7912 13.6921 10.7912C13.4932 10.7912 13.3025 10.7122 13.1618 10.5715L11.1228 8.52779C10.9828 8.3869 10.9044 8.19625 10.9048 7.99765C10.9052 7.79905 10.9844 7.60873 11.125 7.46842ZM2.77715 5.42779C2.8468 5.35811 2.92949 5.30283 3.02051 5.26511C3.11153 5.2274 3.20909 5.20798 3.30761 5.20798C3.40614 5.20798 3.5037 5.2274 3.59472 5.26511C3.68574 5.30283 3.76843 5.35811 3.83808 5.42779L5.87715 7.4706C5.94673 7.54037 6.00188 7.62316 6.03947 7.71424C6.07705 7.80532 6.09633 7.90291 6.0962 8.00144C6.09607 8.09997 6.07654 8.19752 6.03871 8.2885C6.00088 8.37948 5.9455 8.46212 5.87574 8.5317C5.80597 8.60128 5.72319 8.65644 5.63211 8.69402C5.54103 8.73161 5.44343 8.75089 5.3449 8.75076C5.24637 8.75062 5.14883 8.73109 5.05785 8.69326C4.96687 8.65543 4.88423 8.60006 4.81465 8.53029L3.99215 7.70623C3.93905 8.52678 4.11134 9.34624 4.49038 10.0759C4.86943 10.8056 5.44078 11.4178 6.14265 11.8462C6.84451 12.2746 7.65015 12.5029 8.47241 12.5064C9.29468 12.5099 10.1023 12.2886 10.8078 11.8662C10.9062 11.8072 11.004 11.7434 11.0978 11.6769C11.1781 11.6188 11.2691 11.5773 11.3656 11.5547C11.462 11.532 11.562 11.5287 11.6598 11.5449C11.7575 11.5612 11.8511 11.5966 11.9351 11.6492C12.019 11.7018 12.0918 11.7705 12.149 11.8514C12.2063 11.9322 12.247 12.0236 12.2687 12.1203C12.2904 12.217 12.2928 12.317 12.2756 12.4146C12.2585 12.5122 12.2222 12.6054 12.1688 12.6889C12.1154 12.7723 12.046 12.8444 11.9646 12.9009C11.8396 12.9894 11.71 13.074 11.579 13.1528C10.6555 13.7056 9.60036 14.0003 8.524 14.0059C7.44763 14.0115 6.38951 13.728 5.46021 13.1848C4.53091 12.6417 3.76456 11.8589 3.24123 10.9183C2.71791 9.97769 2.45683 8.9138 2.48527 7.83779L1.79433 8.52873C1.65212 8.66117 1.46405 8.73324 1.26975 8.72975C1.07545 8.72627 0.890089 8.6475 0.752717 8.51005C0.615344 8.37259 0.536687 8.18718 0.533316 7.99288C0.529945 7.79858 0.602124 7.61055 0.734646 7.46842L2.77715 5.42779Z" fill="#7D8DA7"/>
</g>
<defs>
<clipPath id="clip0_3681_3108">
<rect width="16" height="16" fill="white" transform="translate(0.5)"/>
</clipPath>
</defs>
</svg>
