<svg width="17" height="16" viewBox="0 0 17 16" fill="none" xmlns="http://www.w3.org/2000/svg">
<path d="M8.50003 14.6663C10.3 14.6663 11.9667 13.9997 13.2334 12.733C13.5 12.4663 13.5 12.0663 13.2334 11.7997C12.9667 11.533 12.5667 11.533 12.3 11.7997C11.2334 12.7997 9.90003 13.333 8.50003 13.333C5.5667 13.333 3.1667 10.933 3.1667 7.99967C3.1667 5.06634 5.5667 2.66634 8.50003 2.66634C9.90003 2.66634 11.2334 3.19967 12.3 4.19967C12.8334 4.73301 13.9667 6.06634 14.0334 6.13301C14.3 6.39967 14.7 6.46634 14.9667 6.19967C15.2334 5.93301 15.3 5.53301 15.0334 5.26634C14.9667 5.19967 13.8334 3.86634 13.2334 3.33301C11.9667 1.99967 10.3 1.33301 8.50003 1.33301C4.83336 1.33301 1.83336 4.33301 1.83336 7.99967C1.83336 11.6663 4.83336 14.6663 8.50003 14.6663Z" fill="#7D8DA7"/>
<path d="M11.8332 6.33301H14.4998C14.8998 6.33301 15.1665 6.06634 15.1665 5.66634V2.99967C15.1665 2.59967 14.8998 2.33301 14.4998 2.33301C14.0998 2.33301 13.8332 2.59967 13.8332 2.99967V4.99967H11.8332C11.4332 4.99967 11.1665 5.26634 11.1665 5.66634C11.1665 6.06634 11.4332 6.33301 11.8332 6.33301Z" fill="#7D8DA7"/>
</svg>
